<svg width="205" height="205" viewBox="0 0 205 205" fill="none" xmlns="http://www.w3.org/2000/svg">
<path d="M102.5 205C159.109 205 205 159.109 205 102.5C205 45.8908 159.109 0 102.5 0C45.8908 0 0 45.8908 0 102.5C0 159.109 45.8908 205 102.5 205Z" fill="url(#paint0_linear_2165_568)"/>
<path d="M164 205H41V72.4333C46.7974 72.4268 52.3555 70.1209 56.4549 66.0216C60.5543 61.9222 62.8602 56.3641 62.8667 50.5667H142.133C142.127 53.4385 142.691 56.2831 143.791 58.9358C144.892 61.5885 146.507 63.9967 148.544 66.0209C150.569 68.0587 152.977 69.6748 155.63 70.7755C158.283 71.8762 161.128 72.4397 164 72.4333V205Z" fill="white"/>
<path d="M102.5 139.4C120.615 139.4 135.3 124.715 135.3 106.6C135.3 88.4851 120.615 73.8 102.5 73.8C84.385 73.8 69.7 88.4851 69.7 106.6C69.7 124.715 84.385 139.4 102.5 139.4Z" fill="#1DA1F2"/>
<path d="M114.097 122.062L102.5 110.466L90.9034 122.062L87.0379 118.197L98.6345 106.6L87.0379 95.0037L90.9034 91.1382L102.5 102.735L114.097 91.1382L117.962 95.0037L106.366 106.6L117.962 118.197L114.097 122.062Z" fill="white"/>
<path d="M120.267 147.6H84.7333C82.4689 147.6 80.6333 149.436 80.6333 151.7C80.6333 153.964 82.4689 155.8 84.7333 155.8H120.267C122.531 155.8 124.367 153.964 124.367 151.7C124.367 149.436 122.531 147.6 120.267 147.6Z" fill="#DFEAFB"/>
<path d="M132.567 164H72.4333C70.1689 164 68.3333 165.836 68.3333 168.1C68.3333 170.364 70.1689 172.2 72.4333 172.2H132.567C134.831 172.2 136.667 170.364 136.667 168.1C136.667 165.836 134.831 164 132.567 164Z" fill="#DFEAFB"/>
<defs>
<linearGradient id="paint0_linear_2165_568" x1="102.5" y1="0" x2="102.5" y2="205" gradientUnits="userSpaceOnUse">
<stop stop-color="#E3ECFA"/>
<stop offset="1" stop-color="#DAE7FF"/>
</linearGradient>
</defs>
</svg>
