<svg width="12" height="12" viewBox="0 0 12 12" fill="none" xmlns="http://www.w3.org/2000/svg">
<path d="M6.00002 8.91663C6.1653 8.91663 6.30384 8.86072 6.41565 8.74892C6.52745 8.63711 6.58335 8.49857 6.58335 8.33329C6.58335 8.16801 6.52745 8.02947 6.41565 7.91767C6.30384 7.80586 6.1653 7.74996 6.00002 7.74996C5.83474 7.74996 5.6962 7.80586 5.5844 7.91767C5.47259 8.02947 5.41669 8.16801 5.41669 8.33329C5.41669 8.49857 5.47259 8.63711 5.5844 8.74892C5.6962 8.86072 5.83474 8.91663 6.00002 8.91663ZM5.41669 6.58329H6.58335V3.08329H5.41669V6.58329ZM6.00002 11.8333C5.19308 11.8333 4.43474 11.6802 3.72502 11.3739C3.0153 11.0677 2.39794 10.652 1.87294 10.127C1.34794 9.60204 0.932312 8.98468 0.626062 8.27496C0.319812 7.56524 0.166687 6.8069 0.166687 5.99996C0.166687 5.19302 0.319812 4.43468 0.626062 3.72496C0.932312 3.01524 1.34794 2.39788 1.87294 1.87288C2.39794 1.34788 3.0153 0.932251 3.72502 0.626001C4.43474 0.319751 5.19308 0.166626 6.00002 0.166626C6.80696 0.166626 7.5653 0.319751 8.27502 0.626001C8.98474 0.932251 9.6021 1.34788 10.1271 1.87288C10.6521 2.39788 11.0677 3.01524 11.374 3.72496C11.6802 4.43468 11.8334 5.19302 11.8334 5.99996C11.8334 6.8069 11.6802 7.56524 11.374 8.27496C11.0677 8.98468 10.6521 9.60204 10.1271 10.127C9.6021 10.652 8.98474 11.0677 8.27502 11.3739C7.5653 11.6802 6.80696 11.8333 6.00002 11.8333Z" fill="#FF2C2C"/>
</svg>
